<?xml version="1.0" standalone="no"?>
<!DOCTYPE svg PUBLIC "-//W3C//DTD SVG 20010904//EN"
 "http://www.w3.org/TR/2001/REC-SVG-20010904/DTD/svg10.dtd">
<svg version="1.0" xmlns="http://www.w3.org/2000/svg"
 width="317.000000pt" height="236.000000pt" viewBox="0 0 317.000000 236.000000"
 preserveAspectRatio="xMidYMid meet">

<g transform="translate(0.000000,236.000000) scale(0.100000,-0.100000)"
fill="#000000" stroke="none">
<path d="M341 1611 c-11 -11 -25 -37 -31 -58 -17 -56 -31 -377 -24 -545 l7
-146 54 -7 c64 -8 104 5 123 39 7 13 28 28 50 35 50 15 50 15 50 -18 0 -16 7
-37 16 -45 22 -23 77 -20 99 4 10 11 26 20 35 20 10 0 29 9 43 20 34 27 37 26
37 -20 0 -32 4 -40 18 -40 12 0 23 15 34 48 21 57 60 118 73 114 6 -2 8 -30 7
-62 -2 -32 1 -68 7 -79 15 -26 51 -27 78 -1 19 17 22 17 27 3 11 -26 90 -11
137 26 l39 32 0 -25 c0 -21 -16 -36 -87 -84 -92 -62 -189 -156 -217 -209 -9
-18 -16 -52 -16 -77 0 -36 5 -48 26 -65 34 -26 66 -26 120 -1 97 48 184 182
209 325 7 42 15 78 16 79 2 2 31 23 64 46 56 39 47 46 -17 14 -43 -22 -50 -18
-46 27 l3 41 -50 14 c-87 23 -145 -8 -198 -105 -26 -50 -42 -35 -45 44 -2 38
-8 75 -14 82 -18 23 -54 14 -89 -21 -35 -37 -49 -38 -49 -5 0 37 -35 18 -38
-21 -4 -40 -27 -70 -54 -70 -15 0 -18 8 -18 43 0 24 -5 48 -12 55 -19 19 -63
14 -99 -13 -35 -25 -99 -59 -103 -53 -1 2 -9 21 -17 43 -18 49 -50 67 -106 62
-24 -3 -43 -4 -43 -3 0 0 14 41 30 90 43 128 73 295 68 379 -3 58 -8 73 -27
88 -29 24 -46 24 -70 0z m53 -33 c17 -63 -1 -229 -43 -398 l-19 -75 -1 70 c-1
98 17 341 30 387 11 43 24 49 33 16z m41 -580 c7 -18 11 -36 9 -39 -2 -4 -24
-14 -49 -22 l-45 -16 0 35 c0 49 16 74 46 74 19 0 28 -8 39 -32z m250 -18 c7
-23 -2 -43 -16 -35 -12 8 -12 55 0 55 5 0 12 -9 16 -20z m525 4 c0 -24 -70
-84 -97 -84 -33 0 -30 35 6 71 34 33 91 41 91 13z m-554 -70 c11 -9 11 -14 0
-29 -20 -28 -46 -12 -46 28 0 41 10 54 23 30 5 -10 16 -23 23 -29z m-236 -19
c-7 -8 -19 -15 -27 -15 -13 0 -13 3 -3 15 7 8 19 15 27 15 13 0 13 -3 3 -15z
m781 -121 c-28 -111 -115 -245 -182 -279 -35 -19 -44 -19 -63 1 -52 51 29 178
189 298 33 25 62 40 64 35 1 -6 -2 -30 -8 -55z"/>
<path d="M1690 1246 c0 -13 -3 -38 -6 -55 -6 -28 -10 -31 -45 -31 -50 0 -51
-18 -1 -22 l37 -3 3 -82 3 -82 -43 -22 -42 -21 -23 26 c-29 34 -31 69 -3 64
10 -2 19 2 20 7 0 6 -15 11 -34 13 -27 2 -37 -2 -46 -19 -10 -18 -8 -28 18
-64 24 -34 27 -45 16 -49 -8 -3 -19 -17 -26 -30 -15 -34 4 -56 48 -56 39 0 59
27 49 68 -5 23 -1 30 24 45 l30 18 6 -28 c13 -61 21 -78 46 -87 38 -13 70 -2
115 41 l41 38 14 -30 c11 -24 21 -31 51 -33 26 -2 43 3 56 16 11 11 31 22 46
26 15 4 39 18 52 31 14 14 34 25 44 25 18 0 20 -7 20 -59 0 -37 5 -63 14 -70
21 -18 72 6 97 45 21 34 22 34 35 15 37 -52 135 -43 230 22 74 51 64 61 -18
18 -94 -50 -128 -58 -156 -34 -11 10 -22 25 -23 33 -4 41 1 48 49 55 82 12
110 45 56 65 -58 23 -154 -27 -154 -80 0 -28 -22 -70 -54 -99 -30 -28 -34 -22
-38 59 l-3 55 -32 -3 c-32 -3 -33 -2 -23 23 11 30 6 45 -15 45 -20 0 -38 -37
-32 -66 3 -18 -3 -30 -22 -45 l-26 -21 -5 45 c-7 56 -24 77 -62 77 -30 0 -48
-16 -113 -96 -52 -64 -125 -95 -139 -58 -10 26 -7 224 4 245 9 17 22 19 105
19 52 0 97 4 100 10 4 6 -32 10 -99 10 l-106 0 0 55 c0 48 -2 55 -20 55 -14 0
-20 -7 -20 -24z m725 -236 c-3 -5 -15 -10 -26 -10 -11 0 -17 5 -14 10 3 6 15
10 26 10 11 0 17 -4 14 -10z m-415 -46 c0 -14 -4 -22 -10 -19 -5 3 -10 17 -10
31 0 14 4 22 10 19 6 -3 10 -17 10 -31z m-41 -35 c18 -24 20 -33 11 -45 -29
-33 -57 -1 -44 50 3 14 7 26 8 26 1 0 12 -14 25 -31z m-382 -73 c-4 -9 -11
-16 -17 -16 -11 0 -14 33 -3 44 11 10 26 -11 20 -28z"/>
<path d="M1459 653 c-4 -42 -3 -73 4 -73 6 0 9 32 6 56 0 4 5 11 13 15 10 7 9
9 -4 9 -10 0 -18 -3 -19 -7z"/>
<path d="M1792 620 c0 -31 2 -38 6 -22 9 30 26 33 30 5 2 -13 7 -23 12 -23 4
0 5 12 1 28 -4 15 -14 27 -22 27 -8 0 -17 7 -21 15 -4 8 -6 -5 -6 -30z"/>
<path d="M2340 620 c0 -22 3 -40 8 -40 4 0 6 18 4 40 -2 22 -6 40 -8 40 -2 0
-4 -18 -4 -40z"/>
<path d="M1577 617 c5 -27 -11 -39 -20 -14 -3 7 -6 5 -6 -5 -1 -13 6 -17 24
-16 28 3 31 15 11 43 -13 18 -14 18 -9 -8z"/>
<path d="M1922 610 c0 -19 2 -27 5 -17 2 9 2 25 0 35 -3 9 -5 1 -5 -18z"/>
<path d="M2010 625 c-17 -20 -5 -45 20 -45 11 0 23 7 26 15 6 15 -11 45 -26
45 -4 0 -13 -7 -20 -15z m33 -10 c8 -18 -11 -31 -25 -17 -11 11 -3 32 12 32 4
0 10 -7 13 -15z"/>
<path d="M2168 610 c2 -16 9 -30 14 -30 5 0 6 10 3 23 -11 35 -22 40 -17 7z"/>
<path d="M1670 624 c0 -4 8 -13 18 -21 16 -14 16 -14 0 -9 -10 3 -18 1 -18 -4
0 -12 37 -13 44 -1 3 5 -5 16 -19 25 -14 9 -25 13 -25 10z"/>
<path d="M2130 605 c0 -14 3 -25 8 -25 4 0 7 11 7 25 0 14 -3 25 -7 25 -5 0
-8 -11 -8 -25z"/>
<path d="M2433 611 c1 -14 9 -26 17 -28 10 -3 11 -2 4 4 -7 4 -14 17 -17 28
-5 16 -5 15 -4 -4z"/>
<path d="M2472 605 c0 -16 2 -22 5 -12 2 9 2 23 0 30 -3 6 -5 -1 -5 -18z"/>
<path d="M2560 626 c0 -2 8 -13 19 -24 20 -24 41 -31 21 -7 -6 8 -9 18 -7 22
3 5 -3 10 -14 10 -10 1 -19 0 -19 -1z"/>
<path d="M2683 611 c1 -14 9 -26 17 -28 10 -3 11 -2 4 4 -7 4 -14 17 -17 28
-5 16 -5 15 -4 -4z"/>
<path d="M2722 605 c0 -16 2 -22 5 -12 2 9 2 23 0 30 -3 6 -5 -1 -5 -18z"/>
<path d="M2810 605 c0 -14 3 -25 8 -25 4 0 7 11 7 25 0 14 -3 25 -7 25 -5 0
-8 -11 -8 -25z"/>
<path d="M2925 610 c9 -30 13 -35 21 -27 3 3 -2 16 -11 29 l-17 23 7 -25z"/>
<path d="M2918 563 c7 -3 16 -2 19 1 4 3 -2 6 -13 5 -11 0 -14 -3 -6 -6z"/>
</g>
</svg>
